<svg xmlns="http://www.w3.org/2000/svg" viewBox="0 0 224.36 231.88"><defs><style>.cls-1{<fill:white></fill:white>;}</style></defs><g id="Layer_2" data-name="Layer 2"><g id="Layer_1-2" data-name="Layer 1"><path class="cls-1" d="M0,.77C6.42,22.37,16.85,42.47,27,62.5c9.26,18.33,18.74,36.61,30.22,53.67s25.25,32.74,41.68,45.47c8.72,6.75,17.93,12.81,27.25,18.69q14.26,9,28.93,17.31,29.58,16.77,60.63,30.76c2.56,1.15,5.14,2.29,7.72,3.42.73.32,1.37-.76.63-1.08q-30.94-13.52-60.57-29.83-14.67-8.08-29-16.84c-9.47-5.8-18.86-11.75-27.89-18.21A187.07,187.07,0,0,1,82,145a199.11,199.11,0,0,1-19.61-23.57C50.5,104.84,40.78,86.83,31.51,68.69,21.48,49.06,11,29.38,3.82,8.5,2.9,5.83,2,3.15,1.23.44A.62.62,0,0,0,0,.77Z"/></g></g></svg>